<svg viewBox="0 0 1033 400" xmlns="http://www.w3.org/2000/svg"><g><g><g><g><g><line x1="58.515625" y1="360.4161373914916" x2="53.515625" y2="360.4161373914916" style="visibility: inherit;" fill="rgb(0, 0, 0)" stroke="rgb(204, 204, 204)" stroke-width="1px"></line><line x1="58.515625" y1="329.8176950444075" x2="53.515625" y2="329.8176950444075" style="visibility: inherit;" fill="rgb(0, 0, 0)" stroke="rgb(204, 204, 204)" stroke-width="1px"></line><line x1="58.515625" y1="299.21925269732344" x2="53.515625" y2="299.21925269732344" style="visibility: inherit;" fill="rgb(0, 0, 0)" stroke="rgb(204, 204, 204)" stroke-width="1px"></line><line x1="58.515625" y1="268.62081035023937" x2="53.515625" y2="268.62081035023937" style="visibility: inherit;" fill="rgb(0, 0, 0)" stroke="rgb(204, 204, 204)" stroke-width="1px"></line><line x1="58.515625" y1="238.0223680031553" x2="53.515625" y2="238.0223680031553" style="visibility: inherit;" fill="rgb(0, 0, 0)" stroke="rgb(204, 204, 204)" stroke-width="1px"></line><line x1="58.515625" y1="207.42392565607122" x2="53.515625" y2="207.42392565607122" style="visibility: inherit;" fill="rgb(0, 0, 0)" stroke="rgb(204, 204, 204)" stroke-width="1px"></line><line x1="58.515625" y1="176.82548330898715" x2="53.515625" y2="176.82548330898715" style="visibility: inherit;" fill="rgb(0, 0, 0)" stroke="rgb(204, 204, 204)" stroke-width="1px"></line><line x1="58.515625" y1="146.2270409619031" x2="53.515625" y2="146.2270409619031" style="visibility: inherit;" fill="rgb(0, 0, 0)" stroke="rgb(204, 204, 204)" stroke-width="1px"></line><line x1="58.515625" y1="115.628598614819" x2="53.515625" y2="115.628598614819" style="visibility: inherit;" fill="rgb(0, 0, 0)" stroke="rgb(204, 204, 204)" stroke-width="1px"></line><line x1="58.515625" y1="85.03015626773492" x2="53.515625" y2="85.03015626773492" style="visibility: inherit;" fill="rgb(0, 0, 0)" stroke="rgb(204, 204, 204)" stroke-width="1px"></line><line x1="58.515625" y1="54.43171392065085" x2="53.515625" y2="54.43171392065085" style="visibility: inherit;" fill="rgb(0, 0, 0)" stroke="rgb(204, 204, 204)" stroke-width="1px"></line><line x1="58.515625" y1="23.833271573566776" x2="53.515625" y2="23.833271573566776" style="visibility: inherit;" fill="rgb(0, 0, 0)" stroke="rgb(204, 204, 204)" stroke-width="1px"></line></g><g transform="translate(48.515625, 0)"><text x="0" y="360.4161373914916" dx="0em" dy="0.3em" style="text-anchor: end; visibility: inherit; font-family: &quot;Helvetica Neue&quot;, sans-serif; font-size: 12px; font-weight: 200;" fill="rgb(50, 49, 63)" stroke="none" stroke-width="1px">0.00</text><text x="0" y="329.8176950444075" dx="0em" dy="0.3em" style="text-anchor: end; visibility: inherit; font-family: &quot;Helvetica Neue&quot;, sans-serif; font-size: 12px; font-weight: 200;" fill="rgb(50, 49, 63)" stroke="none" stroke-width="1px">0.100</text><text x="0" y="299.21925269732344" dx="0em" dy="0.3em" style="text-anchor: end; visibility: inherit; font-family: &quot;Helvetica Neue&quot;, sans-serif; font-size: 12px; font-weight: 200;" fill="rgb(50, 49, 63)" stroke="none" stroke-width="1px">0.200</text><text x="0" y="268.62081035023937" dx="0em" dy="0.3em" style="text-anchor: end; visibility: inherit; font-family: &quot;Helvetica Neue&quot;, sans-serif; font-size: 12px; font-weight: 200;" fill="rgb(50, 49, 63)" stroke="none" stroke-width="1px">0.300</text><text x="0" y="238.0223680031553" dx="0em" dy="0.3em" style="text-anchor: end; visibility: inherit; font-family: &quot;Helvetica Neue&quot;, sans-serif; font-size: 12px; font-weight: 200;" fill="rgb(50, 49, 63)" stroke="none" stroke-width="1px">0.400</text><text x="0" y="207.42392565607122" dx="0em" dy="0.3em" style="text-anchor: end; visibility: inherit; font-family: &quot;Helvetica Neue&quot;, sans-serif; font-size: 12px; font-weight: 200;" fill="rgb(50, 49, 63)" stroke="none" stroke-width="1px">0.500</text><text x="0" y="176.82548330898715" dx="0em" dy="0.3em" style="text-anchor: end; visibility: inherit; font-family: &quot;Helvetica Neue&quot;, sans-serif; font-size: 12px; font-weight: 200;" fill="rgb(50, 49, 63)" stroke="none" stroke-width="1px">0.600</text><text x="0" y="146.2270409619031" dx="0em" dy="0.3em" style="text-anchor: end; visibility: inherit; font-family: &quot;Helvetica Neue&quot;, sans-serif; font-size: 12px; font-weight: 200;" fill="rgb(50, 49, 63)" stroke="none" stroke-width="1px">0.700</text><text x="0" y="115.628598614819" dx="0em" dy="0.3em" style="text-anchor: end; visibility: inherit; font-family: &quot;Helvetica Neue&quot;, sans-serif; font-size: 12px; font-weight: 200;" fill="rgb(50, 49, 63)" stroke="none" stroke-width="1px">0.800</text><text x="0" y="85.03015626773492" dx="0em" dy="0.3em" style="text-anchor: end; visibility: inherit; font-family: &quot;Helvetica Neue&quot;, sans-serif; font-size: 12px; font-weight: 200;" fill="rgb(50, 49, 63)" stroke="none" stroke-width="1px">0.900</text><text x="0" y="54.43171392065085" dx="0em" dy="0.3em" style="text-anchor: end; visibility: inherit; font-family: &quot;Helvetica Neue&quot;, sans-serif; font-size: 12px; font-weight: 200;" fill="rgb(50, 49, 63)" stroke="none" stroke-width="1px">1.00</text><text x="0" y="23.833271573566776" dx="0em" dy="0.3em" style="text-anchor: end; visibility: inherit; font-family: &quot;Helvetica Neue&quot;, sans-serif; font-size: 12px; font-weight: 200;" fill="rgb(50, 49, 63)" stroke="none" stroke-width="1px">1.10</text></g><line x1="58.515625" y1="0" x2="58.515625" y2="377" fill="rgb(0, 0, 0)" stroke="rgb(204, 204, 204)" stroke-width="1px"></line></g></g><g transform="translate(58, 0)" clip-path="url(#clip_0)"><clipPath id="clip_0"><rect width="974" height="377"></rect></clipPath><g><g><g><line x1="15.718787070575988" y1="0" x2="15.718787070575988" y2="377" fill="rgb(0, 0, 0)" stroke="rgb(60, 60, 60)" stroke-width="1px" opacity="0.25"></line><line x1="134.35686651316985" y1="0" x2="134.35686651316985" y2="377" fill="rgb(0, 0, 0)" stroke="rgb(60, 60, 60)" stroke-width="1px" opacity="0.25"></line><line x1="252.9949459557637" y1="0" x2="252.9949459557637" y2="377" fill="rgb(0, 0, 0)" stroke="rgb(60, 60, 60)" stroke-width="1px" opacity="0.25"></line><line x1="371.63302539835763" y1="0" x2="371.63302539835763" y2="377" fill="rgb(0, 0, 0)" stroke="rgb(60, 60, 60)" stroke-width="1px" opacity="0.25"></line><line x1="490.27110484095147" y1="0" x2="490.27110484095147" y2="377" fill="rgb(0, 0, 0)" stroke="rgb(60, 60, 60)" stroke-width="1px" opacity="0.25"></line><line x1="608.9091842835454" y1="0" x2="608.9091842835454" y2="377" fill="rgb(0, 0, 0)" stroke="rgb(60, 60, 60)" stroke-width="1px" opacity="0.25"></line><line x1="727.5472637261391" y1="0" x2="727.5472637261391" y2="377" fill="rgb(0, 0, 0)" stroke="rgb(60, 60, 60)" stroke-width="1px" opacity="0.25"></line><line x1="846.1853431687331" y1="0" x2="846.1853431687331" y2="377" fill="rgb(0, 0, 0)" stroke="rgb(60, 60, 60)" stroke-width="1px" opacity="0.25"></line><line x1="964.8234226113269" y1="0" x2="964.8234226113269" y2="377" fill="rgb(0, 0, 0)" stroke="rgb(60, 60, 60)" stroke-width="1px" opacity="0.25"></line></g><g><line x1="0" y1="360.4161373914916" x2="974.484375" y2="360.4161373914916" fill="rgb(0, 0, 0)" stroke="rgb(60, 60, 60)" stroke-width="1px" opacity="0.25"></line><line x1="0" y1="329.8176950444075" x2="974.484375" y2="329.8176950444075" fill="rgb(0, 0, 0)" stroke="rgb(60, 60, 60)" stroke-width="1px" opacity="0.25"></line><line x1="0" y1="299.21925269732344" x2="974.484375" y2="299.21925269732344" fill="rgb(0, 0, 0)" stroke="rgb(60, 60, 60)" stroke-width="1px" opacity="0.25"></line><line x1="0" y1="268.62081035023937" x2="974.484375" y2="268.62081035023937" fill="rgb(0, 0, 0)" stroke="rgb(60, 60, 60)" stroke-width="1px" opacity="0.25"></line><line x1="0" y1="238.0223680031553" x2="974.484375" y2="238.0223680031553" fill="rgb(0, 0, 0)" stroke="rgb(60, 60, 60)" stroke-width="1px" opacity="0.25"></line><line x1="0" y1="207.42392565607122" x2="974.484375" y2="207.42392565607122" fill="rgb(0, 0, 0)" stroke="rgb(60, 60, 60)" stroke-width="1px" opacity="0.25"></line><line x1="0" y1="176.82548330898715" x2="974.484375" y2="176.82548330898715" fill="rgb(0, 0, 0)" stroke="rgb(60, 60, 60)" stroke-width="1px" opacity="0.25"></line><line x1="0" y1="146.2270409619031" x2="974.484375" y2="146.2270409619031" fill="rgb(0, 0, 0)" stroke="rgb(60, 60, 60)" stroke-width="1px" opacity="0.25"></line><line x1="0" y1="115.628598614819" x2="974.484375" y2="115.628598614819" fill="rgb(0, 0, 0)" stroke="rgb(60, 60, 60)" stroke-width="1px" opacity="0.25"></line><line x1="0" y1="85.03015626773492" x2="974.484375" y2="85.03015626773492" fill="rgb(0, 0, 0)" stroke="rgb(60, 60, 60)" stroke-width="1px" opacity="0.25"></line><line x1="0" y1="54.43171392065085" x2="974.484375" y2="54.43171392065085" fill="rgb(0, 0, 0)" stroke="rgb(60, 60, 60)" stroke-width="1px" opacity="0.25"></line><line x1="0" y1="23.833271573566776" x2="974.484375" y2="23.833271573566776" fill="rgb(0, 0, 0)" stroke="rgb(60, 60, 60)" stroke-width="1px" opacity="0.25"></line></g></g></g><g><g><line x1="0" y1="360.4161373914916" x2="974.484375" y2="360.4161373914916" fill="rgb(0, 0, 0)" stroke="rgb(153, 153, 153)" stroke-width="1.5px"></line></g></g><g><g><line x1="134.35686651316985" y1="0" x2="134.35686651316985" y2="377" fill="rgb(0, 0, 0)" stroke="rgb(153, 153, 153)" stroke-width="1.5px"></line></g></g><g><g><g><g><g><path stroke="rgb(255, 112, 67)" stroke-width="2px" d="M134.47550459261245,360.4161373914916L134.7839635991632,305.08041266079846L134.9263292944943,299.94380943262973L135.3059711487106,279.4159414840411L135.35342638048766,267.8783423947609L135.4246092281532,248.55876006530337L135.61443015526135,238.92714965253836L135.6856130029269,238.09524192933304L136.0415272412547,229.24428225876756L136.11271008892027,223.05014847717953L136.58726240669063,210.6188024411207L136.77708333379877,191.1114326809029L136.87199379735284,177.11658239852062L137.34654611512323,167.03571046503936L137.65500512167398,157.12966663400675L137.9160088964477,147.34096727032718L138.03464697589027,140.24356229722662L138.1058298235558,137.70129372852068L138.3193783665525,133.24734472340882L138.5803821413262,135.22075174044738L138.6990202207688,128.84322175275608L138.74647545254584,121.60091893228721L138.77020306843437,118.93430196827683L138.86511353198844,116.99385069764651L139.05493445909656,120.7852457403796L139.26848300209326,133.95092284512688L139.38712108153584,130.52712249659558L139.64812485630955,133.23735359875002L139.79049055164066,135.21022611302357L139.90912863108323,131.4442686865102L140.26504286941105,128.70278108545065L140.40740856474216,142.31285691854495L140.52604664418473,139.21603947150564L140.69213995540437,129.15883440770253L140.78705041895844,134.84181858246401L140.83450565073548,125.97451161327581L141.28533035261736,127.32182211093658L141.40396843205994,133.50442433675366L141.54633412739105,138.00534199698748L141.66497220683365,125.67674787321448L141.71242743861066,127.10504261250387L141.90224836571883,122.94309606293396L142.18697975638105,122.51407281077172L142.40052829937773,114.39913462334505L142.59034922648587,111.0923321228189L142.96999108070216,126.8910623548077L143.06490154425626,127.98906074046212L143.30217770314144,131.38927162098935L144.3461928022363,126.06202058823214L144.36992041812476,132.58725400366953L144.7732898882296,134.73675569661154L144.82074512000665,125.89812173235049L144.84447273589515,122.06446421553113L144.91565558356072,137.47963548225633L145.2715698218885,138.2984092344178L145.34275266955405,133.6927412179588L145.36648028544258,127.7389473076365L145.60375644432776,118.2028501282258L146.00712591443258,108.65970380821625L146.0545811462096,122.51923422739023L146.50540584809147,127.40723711849358L146.5528610798685,130.96570321427848L146.62404392753405,138.75800173700264L146.81386485464222,134.02732464036882L146.95623054997333,127.98252411501267L147.0036857817504,126.1827769372295L147.07486862941593,119.67082579045933L147.21723432474704,133.13619856157467L147.33587240418962,132.53551953507613L147.5731485630748,132.09822520387192L147.71551425840593,136.98161013065166L147.85787995373704,137.93584675716374L147.9527904172911,133.4287958217587L148.09515611262225,140.55113313962804L148.14261134439926,130.13098910910082L148.2612494238419,130.34772705386678L148.28497703973036,125.30377707852276L148.42734273506147,132.03525189472174L148.64089127805818,136.93576556085887L149.0679883640515,135.3016043107242L149.11544359582854,134.11193492063336L149.40017498649075,125.4432528061059L149.5662682977104,129.53592262479617L149.58999591359893,132.51538625279576L149.63745114537596,145.0879061720043L149.7086339930415,136.03462747663644L149.75608922481854,137.2464433849289L150.04082061548078,140.7295129656693L150.11200346314632,130.26084962292938L150.20691392670042,130.44226550792683L150.27809677436596,133.17520387170788L150.34927962203153,140.36651819954548L150.4441900855856,143.00092743070795L150.56282816502818,139.71704215198923L150.68146624447078,147.7298440670916L151.29838425757228,135.35709066476971L151.39329472112632,139.35406418539102L151.4882051846804,134.46125810989656L151.51193280056893,133.50016288643886L151.67802611178857,122.39701516575295L151.89157465478525,114.31392362509371L151.98648511833932,118.83290338150243L152.0813955818934,116.9209854451637L152.20003366133597,120.73084438651335L152.29494412489007,123.50442169581598L152.5084926678867,133.3261887754947L152.60340313144079,135.27470001049647L152.62713074732932,136.69321618957778L152.65085836321782,135.12502836844683L152.6983135949949,136.58425523416565L152.7220412108834,127.24310199440035L152.86440690621453,123.04361003535337L152.9830449856571,132.99071788667794L153.03050021743414,140.23221240244214L153.14913829687674,150.70575560892283L153.17286591276525,153.12875986423649L153.19659352865375,154.8927069621048L153.29150399220785,132.76905205383363L153.38641445576192,129.66736927812292L153.5050525352045,124.80847661790344L153.52878015109303,123.87207036076578L153.55250776698156,125.79123420507167L154.0982429324175,129.78925308322852L154.19315339597156,119.69547282901601L154.97616472029267,127.95240640096219L155.09480279973528,123.55998364333038L155.1422580315123,117.76143227627227L155.28462372684342,129.1452924780669L155.47444465395156,134.83187510547117L155.61681034928267,133.7699720592172L155.71172081283675,148.60211223855717L155.87781412405639,151.59730749061032L155.92526935583345,143.37433923609635L156.06763505116456,134.78715074730803L156.11509028294157,131.1365451269723L156.44727690538085,133.68063943437218L156.47100452126938,151.13794568717216L156.70828068015456,135.23732104468695L156.77946352782013,136.66600430246845L156.99301207081677,132.5043505151291L157.08792253437085,124.27293135894172L157.18283299792492,118.2804582132373L157.3963815409216,132.12401095967957L157.4201091568101,131.79864696108092L157.56247485214124,128.960914370599L157.58620246802974,126.89504504472808L157.70484054747234,125.3910921754941L157.98957193813456,124.29621448669175L158.13193763346567,115.69654073073724L158.2031204811312,117.23858103490875L158.4166690241279,113.15945117734134L158.48785187179345,110.18984464103227L158.6776727989016,102.82623588359496L158.96240418956384,107.86899910618916L159.12849750078348,108.93926313273562L159.43695650733423,112.31928294356356L159.57932220266534,104.3764669678377L159.65050505033088,98.59409693750933L159.6979602821079,109.98973715244313L159.792870745662,105.28142523140423L159.88778120921606,96.65203895388362L159.9352364409931,98.17244854235503L160.0538745204357,99.27930672276221L160.0776021363242,105.28683467710295L160.29115067932088,104.45857982885872L160.433516374652,103.85561029933694L160.5284268382061,93.01317808383652L160.5521544540946,105.92682822696929L160.78943061297977,104.92449513316143L160.90806869242238,114.59826703887785L161.24025531486166,113.83817018773294L161.76226286440905,110.68395208059741L161.78599048029758,105.78681369910049L161.88090094385163,107.42343215637504L161.90462855974016,111.21575799277309L161.9283561756287,108.77483600266658L162.35545326162202,109.59871239337116L162.64018465228426,118.00109720431055L162.66391226817274,111.11369534916372L162.80627796350387,111.30140199762104L162.8537331952809,108.83718483819592L162.97237127472349,107.04323474613437L163.589289287825,113.53984187762006L163.63674451960202,105.26503387183084L163.87402067848723,112.24531164112705L164.13502445326094,112.12521865817041L164.20620730092648,104.23518816807155L164.27739014859205,111.49558396879024L164.7519424663624,116.78115211171354L164.89430816169352,105.02384012274877L165.06040147291316,104.26711979328888L165.20276716824426,98.51449219443776L165.44004332712947,107.33091729998489L165.58240902246058,111.14840717732108L165.65359187012612,105.70879859045596L165.8434127972343,107.36663715728184L165.91459564489983,103.37180843492683L165.9857784925654,103.06444072455446L166.05696134023094,97.6389418323991L166.08068895611947,104.0926490369186L166.5077860421128,106.19008028230667L166.86370028044058,112.91874542795347L167.21961451876837,115.21634605448213L167.2907973664339,106.48552891258646L167.31452498232244,107.93209683179288L167.36198021409948,101.18259547846867L167.385707829988,96.26895849324865L167.9077153795354,105.69616876551925L168.026353458978,112.55917784373219L168.09753630664358,114.95458085316909L168.19244677019765,111.4966990450348L168.23990200197466,116.78196388721955L168.33481246552876,112.82703389382363L168.42972292908283,120.35131525663991L168.52463339263687,118.02638929026381L169.11782378984987,118.93471078624412L169.1415514057384,103.99076323830485L169.40255518051208,95.7124370229073L169.59237610762025,102.6901535356086L169.61610372350876,107.76993115685508L169.68728657117433,95.86280366810968L169.73474180295136,94.9970176548095L169.97201796183654,99.56846063613119L170.13811127305618,89.89213312902268L170.49402551138394,98.45297230086055L170.51775312727247,91.68092522044782L170.58893597493804,107.55781574192451L171.1583987562625,121.7170596410617L171.18212637215098,116.41978360262067L171.56176822636732,120.36596944514207L171.58549584225582,115.43618993999121L171.7990443852525,117.04904565924562L171.9414100805836,110.42060182435648L172.03632054413768,102.99422711305493L172.24986908713436,100.18869392272961L172.415962398354,103.34800095917706L172.43969001424247,105.64797648171083L172.5583280936851,112.52409386111964L172.74814902079322,112.32817211432501L172.96169756378993,125.18987908016925L173.0803356432325,118.94799615429099L173.1989737226751,122.20650818275806L173.27015657034065,119.37696974047782L173.38879464978325,122.51880095350205L173.4599774974488,135.20952447459229L173.55488796100286,128.84316560093308L173.74470888811103,116.40585354240272L173.93452981521918,122.95669596080555L174.10062312643882,119.92310644289637L174.26671643765843,112.51291807485416L174.4802649806551,117.52177134092807L174.57517544420918,113.3656137201234L174.5989030600977,107.7390633726755L174.62263067598622,98.44119952072907L174.67008590776325,99.4749574350185L174.74126875542882,105.42926839562551L174.90736206664846,104.56227157594316L175.1209106096451,101.33023029171221L175.35818676853032,98.97730423679212L175.4530972320844,102.4661092678146L175.50055246386142,107.6068269299011L175.57173531152696,111.34926938790005L175.69037339096957,111.47289989782115L175.76155623863514,119.3655057075502L175.78528385452364,119.90958753802857L175.80901147041214,117.70481151111471L176.25983617229403,116.0997345635214L176.4733847152907,117.53210614517565L176.6157504106218,113.3731374576156L176.78184372184143,102.5428054545655L176.80557133772996,112.86439695286003L177.01911988072663,112.57591276511204L177.18521319194625,114.96676387593362L177.46994458260846,119.3081710841139L177.68349312560514,135.47305352917985L177.7784035891592,149.84195554868998L178.0156797480444,134.2938402238719L178.1105902115985,125.57567986690657L178.22922829104107,116.6279915275336L178.32413875459514,115.3158096154744L178.6325977611459,111.7596735839931L178.70378060881146,116.97340935158127L178.84614630414256,112.96640619187889L178.86987392003107,117.851910690122L178.8936015359196,121.40855796484303L179.70034047612924,108.39259158382708L179.84270617146035,104.11870325745173L180.00879948268,106.20904775485474L180.1511651780111,102.52908334995988L180.2460756415652,107.65267206170284L180.2935308733422,103.5800418453453L180.34098610511924,100.61516704783702L180.48335180045035,111.46107619276171L180.55453464811592,114.15516285126256L180.60198987989295,108.31385514014477L180.6731727275585,104.061383126451L181.0290869658863,103.56645109998414L181.07654219766334,103.2061405847162L181.36127358832556,115.94817252711186L181.38500120421406,112.2200337836652L181.4087288201026,117.30855157694248L181.74091544254185,110.60952213243974L181.83582590609592,103.13176109733956L181.93073636965,100.28881866328885L182.12055729675816,106.02175936980638L182.2154677603122,102.39273740564465L182.45274391919742,104.95254461473922L182.52392676686296,99.0134814644536L182.59510961452852,102.49244628955216L182.6662924621941,99.8233974832196L182.78493054163667,108.28380035021814L183.23575524351853,104.03950323938443L183.52048663418077,103.55052254219959L183.54421425006927,100.59367699514695L183.6153970977348,101.04196103639475L183.63912471362335,109.17091461692956L183.6865799454004,102.08445482604822L183.73403517717745,102.12724729729086L183.82894564073152,96.95666501735121L183.9238561042856,95.79334871705726L184.04249418372817,105.3499248484519L184.0899494155052,109.70624467260501L184.445863653833,107.67591030558424L184.5407741173871,106.19782688639305L184.7068674286067,107.72264975672408L185.15769213048856,114.03445600532933L185.22887497815412,116.02858335481181L185.25260259404263,112.27857286623077L185.3475130575967,104.34683003153947L185.39496828937376,119.37946204390136L185.51360636881634,117.31888015139015L185.727154911813,118.41964413314406L185.8220653753671,114.01926511285666L185.91697583892116,118.61839198459381L186.01188630247523,121.96655634721856L186.24916246136044,119.20228480420496L186.29661769313745,114.58902752138897L186.3440729249145,108.62970861999679L186.36780054080302,112.09392725828974L186.4627110043571,109.41414322796265L186.53389385202263,110.06412805338675L186.7237147791308,115.73905220529974L186.81862524268487,109.46692658988388L187.15081186512413,102.29995154235888L187.2457223286782,102.28412890676503L187.29317756045523,102.27261002805267L187.41181563989784,97.06248908534582L187.43554325578637,106.27385903656591L187.4829984875634,102.57626596304561L187.55418133522895,102.48528580502494L187.60163656700598,94.61644945147953L187.64909179878305,101.8922745836091L187.67281941467155,96.7856048817909L187.83891272589116,103.47141973687582L187.91009557355676,105.73782535187547L188.02873365299934,102.18603344059102L188.4795583548812,104.80206412818018L188.71683451376637,106.70653446874508L188.85920020909748,100.29038607816994L189.00156590442862,108.62376804734191L189.09647636798266,99.08526452388622L189.1202039838712,110.3473071553255L189.3812077586449,115.94520659151118L189.4049353745334,107.01613938354359L189.45239060631047,105.71751365514746L189.7608496128612,102.17124652537296L189.9981257717464,102.19043165439933L190.21167431474305,102.20439842833048L190.61504378484787,99.61369864025022L191.0421408708412,102.92940439353208L191.06586848672973,100.14150298291696L191.1133237185068,95.511043156487L191.3031446456149,99.94267120135248L191.35059987739197,97.96716121901022L191.44551034094602,104.3315927503715L191.68278649983122,93.3596933081896L191.87260742693937,100.97735611129406L191.8963350428279,114.32561743046062L192.15733881760158,105.83707847429878L192.34715974470976,107.4600249127194L192.48952544004086,103.43979472088535L192.5132530559294,123.92087553674952L192.5607082877064,128.42763197269002L192.60816351948344,123.90594785954823L192.72680159892604,118.01329422567886L193.319991996139,124.12691277823058L193.34371961202754,120.77502428598177L193.58099577091272,107.93137906561606L193.62845100268976,119.38814614120696L193.72336146624383,112.12346697522429L193.74708908213236,119.83911853989963L194.07927570457161,109.85090728197042L194.22164139990272,105.18035708570011L194.34027947934533,106.98193174181955L194.38773471112236,97.89000769346598L194.4351899428994,114.67889538178389L194.48264517467643,103.49339722335998L194.79110418122718,100.55208976303169L194.88601464478126,103.61255313091698L194.9334698765583,105.84057046273745L195.00465272422386,107.46256708030279L195.2182012672205,103.44164541888603L195.24192888310904,105.71614964837897L195.47920504199422,104.77112112794765L195.52666027377126,104.08314036507363L195.81139166443347,103.58229036970141L195.835119280322,103.21767157307039L195.85884689621054,102.95222908912302L195.9537573597646,94.95638416230287L196.04866782331865,91.73627665507996L196.1910335186498,102.3963763873324L196.59440298875458,97.15259099490146L196.73676868408572,101.13771802771822L196.76049629997422,98.83715530860451L196.9503172270824,97.16234564908967L197.0926829224135,93.34221661746074L197.2350486177446,95.76289788143919L197.35368669718721,97.52515384161546L197.89942186262314,96.20720858112168L197.94687709440018,100.44947963048645L198.06551517384278,98.33611775541976L198.18415325328536,99.3984579098734L198.4926122598361,97.57097394281345L198.65870557105575,93.63969801529163L199.01461980938353,101.18119953806439L199.29935120004575,104.0705450471408L199.37053404771132,98.37138577924196L199.51289974304242,96.82326543171376L199.70272067015057,103.4988366172197L199.72644828603907,100.55604964176155L199.7501759019276,106.21630352213447L199.77390351781614,110.33696834704597L199.98745206081279,113.33681233958151L200.5331872262487,115.52069876614735L200.55691484213725,111.90883288568307L200.58064245802575,119.68286492271363L200.7467357692454,109.73715464865899L201.0077395440191,107.69841276815146L201.05519477579614,106.21420867914202L201.33992616645835,99.93197290333887L201.3636537823469,108.36284325606488L201.43483663001246,111.89964927334734L201.48229186178946,109.27270885492459L201.506019477678,107.36029623031288L201.55347470945503,113.7706626381019L202.0042994113369,123.63914458197672L202.19412033844503,130.82339943711756L202.47885172910725,123.04919897414933L202.50257934499578,122.59131623611279L202.69240027210392,127.4597128018265L202.71612788799246,120.60043510365745L202.85849358332356,113.00601333988823L202.9296764309891,110.0781418953664L203.07204212632024,107.94665148375452L203.16695258987428,122.00013206111396L203.57032205997913,124.42846312292514L203.61777729175617,123.59542053642156L203.64150490764467,117.78723033444265L203.6652325235332,118.7606030664063L203.92623629830692,114.2674832162715L204.35333338430024,113.5973595648756L204.75670285440506,113.10950954665935L204.9227961656247,117.95608993240216L204.94652378151324,118.88353285372085L205.01770662917878,109.15524090243224L205.39734848339506,115.07738235940485L205.49225894694916,111.58609854157447L205.61089702639174,103.84270872318967L205.6583522581688,103.40725613440986L205.7058074899458,113.49371704778673L205.75326272172285,113.03405779421871L205.8007179534999,110.09855825811894L205.89562841705398,105.36064699633619L205.9193560329425,101.91144759775841L206.1803598077162,96.79956283609158L206.25154265538174,93.07811072959817L206.4413635824899,92.96976119557308L206.51254643015545,90.29001513530062L206.53627404604396,96.14176280192879L206.72609497315213,97.8009675037319L207.08200921147989,101.60973612614674L207.176919675034,106.9833872827669L207.22437490681102,110.89540532478634L207.5802891451388,103.33988406136791L207.88874815168955,97.83946458159932L208.43448331712548,96.4360267998299L208.79039755545327,100.61605929370609L208.81412517134177,101.05825534974582L208.95649086667288,106.58190927754697L208.9802184825614,102.80052653847986L209.09885656200402,110.4511503024475L209.2174946414466,103.01646640510523L209.31240510500066,110.60835452535088L209.3598603367777,105.73177867888108L209.739502190994,109.98423426115744L210.0005059657677,110.47915432555254L210.16659927698734,108.23858853293001L210.19032689287587,106.6074566359008L210.35642020409549,102.81912501536141L210.42760305176105,107.86382239411512L210.9970658330855,106.33462688684358L211.06824868075105,100.0196373585456L211.2343419919707,90.22058978294035L211.30552483963623,101.29295634441479L211.32925245552477,96.34930120365743L211.3767076873018,97.95205546019037L211.4004353031903,93.91712535994208L211.8749876209607,101.38316664496989L211.9936257004033,96.41497430246153L212.20717424339998,95.39899787661761L212.25462947517698,102.46196983710973L212.30208470695405,107.60381342434795L212.46817801817366,106.14534035685301L212.77663702472444,112.88617476222328L212.82409225650144,107.39003181132415L212.96645795183255,105.98970734257176L213.15627887894073,115.37374152732855L213.29864457427183,109.20098041632082L213.32237219016037,112.50981312601363L213.44101026960294,120.1203785376743L213.55964834904555,115.25739975935466L213.72574166026516,116.91888640774226L214.0104730509274,110.32584588926198L214.10538351448147,110.72784759081264L214.41384252103222,100.61703443153294L214.46129775280926,103.65983284958588L214.50875298458627,105.87499009792845L214.57993583225183,117.8910949727304L214.69857391169444,116.2353489235777L215.10194338179926,117.63083339929659L215.22058146124184,110.84414329911351L215.74258901078926,103.3025653066781L215.81377185845483,103.01403172718943L215.9324099378974,102.80397928132163L216.09850324911704,92.24759070272137L216.19341371267112,105.36948061351751L216.24086894444815,99.31701087156421L216.38323463977926,105.31428329743079L216.4069622556678,104.47856242445744L216.5493279509989,111.67276042743919L216.7154212622185,109.10753377510349L216.85778695754962,117.64351917021168L216.9289698052152,116.05511373934405L217.07133550054633,99.2935489886595L217.33233927532,100.0954678476719L217.37979450709707,111.08273517504153L217.61707066598225,116.4805981898644L217.6882535136478,115.20850726565112L217.73570874542483,116.88329267232609L217.85434682486743,115.5016688488833L218.23398867908372,119.69758190442121L218.28144391086076,114.94960381034639L218.42380960619187,103.69047295935349L218.51872006974594,100.69556089883497L218.566175301523,103.71700011778177L218.89836192396226,108.51747546867716L219.1830933146245,104.20961872562259L219.30173139406708,114.07783701418958L219.5864627847293,121.26189992826639L219.61019040061782,108.28582453319927L219.75255609594893,93.63750644658609L219.77628371183744,93.37700127754033L220.10847033427672,95.7882211139771L220.2033807978308,97.54358915490309L220.25083602960783,96.22062948919506L220.29829126138486,100.45925005156391L220.3694741090504,103.54496582096846L220.440656956716,103.19049930159281L220.8440264268208,100.33158007598519L221.1050302015945,119.05722767576003L221.12875781748303,117.0842935313832L221.27112351281414,120.84973267328115L221.43721682403378,118.38923716957862L222.00667960535822,111.39626124387883L222.14904530068932,108.90624236947156L222.19650053246636,99.29090583039664L222.69478046612528,100.09354362845653L222.76596331379082,100.67786394544407L222.8608737773449,93.30064633770462L222.8846013932334,90.5308995187724L222.90832900912193,93.7162590335941L223.05069470445304,93.43433316088215L223.12187755211858,95.82995872504995L223.16933278389564,100.17484173526623L223.38288132689232,98.13618136769946L223.54897463811193,104.45463941861726L223.66761271755453,103.85274168068116L223.85743364466268,98.21282492845933L223.95234410821678,99.30870073184616L224.04725457177082,107.90910111521822L224.35571357832157,106.36758979580662L224.4031688100986,113.0479723537814L224.47435165776417,112.70955565698279L224.7590830484264,109.8623207022112L224.85399351198046,99.98693085663109L224.97263159142307,87.5959118500445L225.0200868232001,83.77698521225375L225.25736298208528,99.20287981645708L225.30481821386232,115.63466628732141L225.35227344563938,111.99180124109779L225.6607324521901,109.3397954874469L226.04037430640642,107.40913529878912L226.159012385849,108.60448228094839L226.32510569706864,109.47469488396035L226.9182960942816,112.70907725845518L226.9420237101701,115.06370762708747L226.96575132605864,119.37874613495387L227.13184463727828,117.31835896967635L227.36912079616346,108.01579431484782L227.55894172327163,103.84439484563484L227.72503503449124,106.00935123105211L227.8199454980453,97.1819690816273L228.08094927281903,95.95737007585029L228.22331496815013,100.26759719864896L228.36568066348124,100.80457494454419L228.7927777494746,98.59462714405379L228.88768821302867,94.38491754579462L229.14869198780235,96.52198415726627L229.26733006724496,103.27950384942193L229.38596814668756,113.40071338431551L229.48087861024163,115.56721872671375L229.50460622613016,114.54356701647748L229.76561000090385,111.19748097192337L229.78933761679238,98.35805993347941L230.0503413915661,112.41876981301152L230.09779662334313,107.04976100829799L230.12152423923163,103.14112259846655L230.28761755045127,108.09823663461572L230.35880039811684,101.30354525492368L230.38252801400535,96.3570099305079L230.40625562989385,97.95766741333756L230.54862132522496,101.72381366033966L231.0706288747724,117.46990612566793L231.4739983448772,113.32785584341406L231.5926364243198,105.11070803892886L231.61636404020834,104.33035963626799L231.66381927198535,103.76226599913082L231.85364019909352,98.1469586322907L233.2298419206276,94.05901486923113L233.56202854306687,109.28906500623873L233.58575615895538,107.37220350846957L233.8467599337291,103.37586073859143L233.87048754961762,97.865655602618L233.91794278139463,104.25769666163797L233.9653980131717,101.10849975409809L234.03658086083723,98.81588440540901L234.06030847672574,104.94946323006985L234.1077637085028,106.81384101492074L234.65349887393873,105.57024044279007L234.7721369533813,102.0640316267768L234.84331980104687,94.3097764097148L234.9145026487124,101.66901660920445L235.03314072815502,104.42567587493079L235.29414450292873,101.23078862137521L235.5076930459254,98.90491070078679L235.57887589359095,92.00993637559412L235.60260350947948,99.99473306436454L235.81615205247616,100.60592985478513L235.95851774780726,101.05088111821135L236.33815960202355,96.17307043898137L236.48052529735466,95.22289186400405L236.57543576090873,94.53116186142057L236.7889843039054,94.02758241953978L236.83643953568244,98.86271178485487L237.04998807867912,104.98355356230638L237.1448985422332,106.83865877678903L237.2872642375643,105.58830777343019L237.4059023170069,109.87978744198921L237.548268012338,107.80224944169595L237.7618165553347,101.0880665784781L237.9279098665543,93.59927385455336L238.0228203301084,98.55090314954481L238.23636887310505,99.5548216767964L238.59228311143283,115.89087996164835L238.75837642265247,114.77919239550994L238.90074211798358,103.56641344935258L238.99565258153766,103.20611317505649L239.0193801974262,102.94381457536883L239.47020489930802,100.15199359529419L239.49393251519655,95.5186803222976L239.54138774697358,102.54909865756468L239.6837534423047,97.26377280763057L239.75493628997026,88.21432038987427L240.39558191896026,89.42892182825409L240.5379476142914,100.71662207340319L240.63285807784544,106.33320025236958L240.704040925511,102.61946636815065L240.89386185261915,120.72280889645646L240.9413170843962,120.89770425955237L241.344686554501,108.02069008637545L241.36841417038954,114.25142936531557L241.8192388722714,110.98480476187746L241.8429664881599,116.40930484908102L241.91414933582547,112.55573811405873L242.0802426470451,104.54860633195824L242.12769787882212,106.52201719309545L242.3175188059303,115.76126309850986L242.36497403770733,114.68483131914513L242.38870165359586,111.30032138426537L242.69716066014658,108.83639815167294L242.74461589192362,112.24439723734997L242.9818920508088,112.12455297222067L243.05307489847436,109.43643874770441L243.31407867324808,107.47949159225658L243.38526152091362,98.25223126458417L243.43271675269068,99.33738854454504L243.48017198446772,92.32478024585009L243.76490337512993,95.02220420290661L244.16827284523475,102.18766404264812L244.52418708356254,94.39978080846913L244.66655277889367,99.13367221199547L244.83264609011331,102.57994515376265L245.02246701722143,107.68969945487123L245.11737748077547,106.20786538707404L245.28347079199511,107.72995778521982L245.30719840788367,103.63630585206568L245.33092602377215,103.2569948442316L245.56820218265733,108.18259162953262L246.06648211631625,122.17189648724045L246.18512019575883,124.55350762514524L246.30375827520143,121.08558533453566L246.44612397053257,105.55659990946111L246.68340012941775,109.85670411701977L246.80203820886032,102.58370958211384L246.94440390419143,107.69243995871096L247.0393143677455,103.60899287436717L247.06304198363406,95.43450819796067L247.2528629107422,97.28608615204308L247.32404575840775,106.43663770112158L247.34777337429628,107.89650402984643L247.3952286060733,101.1566839186516L247.46641145373889,98.850962477204L247.4901390696274,94.57152966832797L247.51386668551586,96.65783778247055L247.6799599967355,100.77753768906848L247.7511428444011,98.57494402206748L247.7748704602896,96.97145583249073L247.82232569206664,98.40498402998105L247.8697809238437,104.65032775675826L247.94096377150925,98.79346759184347L247.96469138739775,97.13054099128772L248.1070570827289,90.71819522707881L248.24942277805997,86.05000751073464L248.296878009837,87.85330205224051L248.36806085750254,99.56957087646526L248.84261317527296,110.69988218000304L248.89006840704997,113.60101360997425L249.0324341023811,105.30956689298472L249.19852741360074,114.87859928002922L249.48325880426296,114.04225205929117L249.93408350614482,110.83252368309172L249.98153873792188,108.49584142521854L250.36118059213814,117.19820713949542L250.43236343980368,120.93266177998692L250.47981867158072,118.44960955926035L250.50354628746928,114.04107994306929L250.95437098935113,113.43253798198435L251.5238337706756,110.38865183481238L251.59501661834113,121.17704071718185L251.90347562489185,118.62751742553831L252.09329655200006,111.56972927021752L252.28311747910817,111.63339469214827L252.30684509499667,119.48234591782028L252.37802794266221,114.79291201210094L252.42548317443928,106.17726892973297L252.4492107903278,110.30855116377768L252.7813974127671,110.71525703066004L252.97121833987524,111.01133890175043L253.49322588942263,111.22688650390427L253.6355915847537,103.58120235976571L253.7067744324193,103.21687950183724L253.87286774363895,100.35078486176309L254.18132675018967,95.66340036428699L254.2287819819667,100.05358724863083L254.2525095978552,103.24964330043309L254.41860290907485,97.77376930763876L254.84569999506823,101.58993583939093L255.2253418492845,101.76723747500432L255.39143516050413,101.89631306573091L255.5100732399467,107.1920152947842L255.53380085583527,100.64381611952638L255.67616655116635,95.87672711993861L255.98462555771712,102.80975672624737L256.0320807894941,102.65526708063584L256.17444648482524,97.34106341962632L256.2456293324908,90.87145555490929L256.79136449792674,88.76244862889746L256.91000257736937,95.02969438526725L257.2184615839201,104.79398449490878L257.31337204747416,101.49891729671918L257.74046913346746,104.30184357544147L257.93029006057566,108.94324150585345L258.4760252260116,117.52391439819769L258.5472080736771,113.36717386581569L258.57093568956566,120.7445371562502L258.6183909213427,113.11091963417579L258.6658461531197,110.15451367760772L258.68957376900823,108.00225014122623L258.78448423256236,109.03626988624256L259.0692156232246,104.58730106161022L259.21158131855566,106.55018695628218L259.30649178210973,107.97916788760335L259.85222694754566,106.418598406103L260.16068595409644,102.6816362240686L260.3505068812046,99.96112775554758L260.54032780831267,103.18233278946855L260.80133158308644,97.72476725565656L260.82505919897494,101.5542623455479L261.18097343730267,93.93866437298021L261.2521562849683,93.59624424795527L261.51316005974195,103.75043279494565L261.5368876756305,103.34007925864819L261.6080705232961,105.64220948372576L262.01143999340087,104.71729268808014L262.10635045695494,91.03961526333939L262.41480946350566,94.08660409563885L262.5334475429483,88.50220916704643L262.5809027747253,92.23937245753757L262.62835800650237,87.1574245345086L262.8419065494991,96.46210444405438L262.96054462894165,95.43330861969719L263.0791827083842,94.68434525956519L263.41136933082345,99.34083513239335L263.435096946712,113.13423015782087L263.4825521784891,110.17148373882134L263.60119025793165,118.41807474379834L264.26556350281015,111.41725499791079L264.4791120458068,116.72412862091329L264.64520535702644,123.18840021796123L264.74011582058057,122.69265474160781L264.88248151591165,122.33175203482259L265.0248472112428,116.8672796652786L265.14348529068536,112.88914378025055L265.21466813835093,109.9930608559502L265.26212337012794,107.88471248705946L265.6180376084557,111.55157007351136L265.8315861514524,116.82190999595048L266.0214070785605,107.6543794619754L266.14004515800315,100.98041723324155L266.2586832374457,101.32350792972761L266.42477654866536,93.77067515826303L266.54341462810794,103.87741849764967L266.590869859885,103.43252485021674L266.638325091662,116.11298027239633L266.6620527075505,117.54174902123657L266.8756012505472,115.9810250708901L266.9230564823243,120.04655323404222L267.06542217765536,117.80452253781266L267.3501535683176,123.974926989464L267.46879164776016,118.06351103225751L267.65861257486836,113.76000021541125L267.7060678066454,105.42530914174284L267.9433439655306,99.35765404011227L267.99079919730764,92.33953352662303L268.34671343563537,100.23467979031363L268.6077172104091,98.17974347177397L268.65517244218614,104.48635263038352L268.7500829057402,98.67409369984267L268.7975381375173,104.84623959641749L269.03481429640243,98.93609141111546L269.105997144068,105.03697393022412L269.9127360842776,112.07928400363738L270.0788293954972,117.20608573708222L270.1500122431628,115.73666220002576L270.24492270671686,101.66258386753793L270.57710932915614,99.21925763999326L270.83811310392986,102.64225134534496L271.00420641514944,99.93245556383675L271.1702997263691,100.5605918344009L271.4075758852543,106.21961023837594L271.47875873291986,102.53677283796333L271.5973968123625,102.45653480996509L271.71603489180507,104.9989891250845L271.85840058713615,99.04729306798498L271.9058558189132,99.91619353742084L272.14313197779836,105.75048827817443L272.1668595936869,99.59438445143445L272.5702290637917,97.71360846506991L272.6414119114573,93.74353594749437L272.8075052226769,101.25679355270796L273.09223661333914,101.52470989029916L273.37696800400136,119.92582618058054L273.4481508516669,109.91403044438607L273.495606083444,102.62544314843649L273.6616993946636,110.32368959449605L273.8989755535488,108.1254102087209L274.0887964806569,103.92419521637441L274.13625171243393,111.26918109995478L274.183706944211,103.61199282569055L274.25488979187656,95.43669216252408L274.3023450236536,107.69114647625389L274.5158935666503,108.80978641814272L274.7531697255355,112.22502389533997L274.77689734142393,112.11044917923738L275.01417350030914,112.02703878591473L275.1090839638632,106.7645808205715L275.1328115797518,97.73177622279741L275.5836362816336,96.35762967462216L275.70227436107615,95.35725098755051L275.7497295928532,94.62897530336244L275.7734572087418,94.0987906052735L275.84464005640734,93.71281614506472L276.058188599404,98.63356193703703L276.4852856853973,99.61499727409074L276.7225618442825,95.12774700046151L276.95983800316765,89.26016120175728L277.07847608261034,92.79116153880705L277.17338654616435,97.96259738368144L277.1971141620529,99.12653507924784L277.2920246256069,107.77648452012664L277.43439032093806,103.67017731507781L277.45811793682657,98.0799180703001L277.48184555271513,101.81281213860848L277.5530284003807,101.92949142083472L277.6242112480462,104.61530153779756L277.9563978704855,96.16710090493791L278.07503594992806,100.42028124222475L278.14621879759363,113.92006692577809L278.5495882676984,102.94097010738778L278.573315883587,105.35165802160822L278.66822634714106,107.10663882316067L278.78686442658363,100.5816620481844L278.9529577378033,103.6340817545082L279.1665062807999,103.25537570120974L279.213961512577,105.58054529391052L279.45123767146214,107.27326875739675L279.59360336679333,113.70730663781904L279.6410585985703,118.39128621476647L279.7834242939014,121.80122334678418L279.8308795256785,116.48105478038661L279.87833475745555,112.60797206404919L280.04442806867513,112.38923544605774L280.16306614811776,112.22999518815993L280.2105213798948,104.3114654819039L280.2579766116718,114.15198145276236L280.4477975387799,105.71067148253451L280.80371177710776,107.36800062271504L280.8986222406618,100.77193343826002L281.01726032010436,98.5708641274789L281.08844316777,96.96848566923029L281.46808502198627,101.00368935062954L281.7053611808714,101.3404500311861L281.72908879676,104.18647940613334L281.77654402853705,111.4601239900993L281.9189097238681,108.95273444872004L281.9426373397567,104.52648726309383L282.06127541919926,114.30851730946864L282.2273687304189,126.6315703822338L282.3460068098615,122.59841502169618L282.41718965752705,114.46054272022042L282.5121001210811,124.14137728175899L282.6544658164122,110.38208404654188L282.9629248229629,113.36965656881455L283.12901813418256,105.14113896702042L283.5798428360644,112.1551161504251L284.05439515383483,109.45868874143719L284.1255780015004,107.49568958769407L284.2204884650544,108.66749380327116L284.244216080943,101.71796447370485L284.4103093921626,99.25957472128277L284.8136788622674,107.8733373795281L285.0746826370411,101.13981859721991L285.33568641181483,101.43955212270384L285.5017797230345,109.46036092776262L285.64414541836555,112.69864213834325L286.21360819969,112.45524326014385L286.75934336512597,109.67718127731246L286.9728919081226,112.85648735281558L287.3288061464504,115.17102217578173L287.3525337623389,111.65426832789689L287.51862707355855,103.89233632763239L287.6135375371126,103.44338503044418L287.85081369599783,110.91915128459755L287.92199654366334,111.1597739186169L287.9457241595519,116.53668239518731L288.1830003184371,110.04760136812195L288.2779107819911,105.3235503804184L288.4677317090993,101.88444126137023L288.49145932498783,117.58684301921818L288.5863697885419,118.6147211009229L288.7999183315386,121.9638839439061L288.8236459474271,111.39773649608708L289.06092210631226,108.90731635307912L289.0846497222008,112.29602568797367L289.1083773380893,122.56560888228336L289.29819826519747,124.84013024873647L289.39310872875154,113.4916438060036L289.41683634464005,107.83081327519625L289.77275058296783,101.10886104926635L289.962571510076,104.01788262729582L290.2710305166267,106.13565033610126L290.3422133642923,99.8747824296052L290.43712382784634,92.71600299417395L290.4845790596234,95.30701436368639L290.5083066755119,97.19327064069142L290.5794895231775,101.16733280985324L290.65067237084304,98.85871486999878L290.7930380661741,97.17804100978475L290.8167656820627,90.75277524054462L290.93540376150526,94.18989085371948" style="fill: none;" fill="none"></path></g></g></g></g><g opacity="0.2"><g><g><g><path stroke="rgb(255, 112, 67)" stroke-width="2px" d="M134.47550459261245,360.4161373914916L134.7839635991632,264.79600505685386L134.9263292944943,293.48204475724515L135.3059711487106,245.6719785899263L135.35342638048766,245.6719785899263L135.4246092281532,207.42392565607122L135.61443015526135,216.985938889535L135.6856130029269,236.10996535646254L136.0415272412547,207.42392565607122L136.11271008892027,207.42392565607122L136.58726240669063,178.7378859556799L136.77708333379877,140.4898330218248L136.87199379735284,140.4898330218248L137.34654611512323,140.4898330218248L137.65500512167398,130.92781978836106L137.9160088964477,121.36580655489729L138.03464697589027,121.36580655489729L138.1058298235558,130.92781978836106L138.3193783665525,121.36580655489729L138.5803821413262,140.4898330218248L138.6990202207688,111.80379332143349L138.74647545254584,102.24178008796974L138.77020306843437,111.80379332143349L138.86511353198844,111.80379332143349L139.05493445909656,130.92781978836106L139.26848300209326,169.17587272221613L139.38712108153584,121.36580655489729L139.64812485630955,140.4898330218248L139.79049055164066,140.4898330218248L139.90912863108323,121.36580655489729L140.26504286941105,121.36580655489729L140.40740856474216,178.7378859556799L140.52604664418473,130.92781978836106L140.69213995540437,102.24178008796974L140.78705041895844,150.05184625528858L140.83450565073548,102.24178008796974L141.28533035261736,130.92781978836106L141.40396843205994,150.05184625528858L141.54633412739105,150.05184625528858L141.66497220683365,92.67976685450594L141.71242743861066,130.92781978836106L141.90224836571883,111.80379332143349L142.18697975638105,121.36580655489729L142.40052829937773,92.67976685450594L142.59034922648587,102.24178008796974L142.96999108070216,169.17587272221613L143.06490154425626,130.92781978836106L143.30217770314144,140.4898330218248L144.3461928022363,111.80379332143349L144.36992041812476,150.05184625528858L144.7732898882296,140.4898330218248L144.82074512000665,102.24178008796974L144.84447273589515,111.80379332143349L144.91565558356072,178.7378859556799L145.2715698218885,140.4898330218248L145.34275266955405,121.36580655489729L145.36648028544258,111.80379332143349L145.60375644432776,92.67976685450594L146.00712591443258,83.1177536210422L146.0545811462096,159.61385948875235L146.50540584809147,140.4898330218248L146.5528610798685,140.4898330218248L146.62404392753405,159.61385948875235L146.81386485464222,121.36580655489729L146.95623054997333,111.80379332143349L147.0036857817504,121.36580655489729L147.07486862941593,102.24178008796974L147.21723432474704,169.17587272221613L147.33587240418962,130.92781978836106L147.5731485630748,130.92781978836106L147.71551425840593,150.05184625528858L147.85787995373704,140.4898330218248L147.9527904172911,121.36580655489729L148.09515611262225,159.61385948875235L148.14261134439926,102.24178008796974L148.2612494238419,130.92781978836106L148.28497703973036,111.80379332143349L148.42734273506147,150.05184625528858L148.64089127805818,150.05184625528858L149.0679883640515,130.92781978836106L149.11544359582854,130.92781978836106L149.40017498649075,102.24178008796974L149.5662682977104,140.4898330218248L149.58999591359893,140.4898330218248L149.63745114537596,178.7378859556799L149.7086339930415,111.80379332143349L149.75608922481854,140.4898330218248L150.04082061548078,150.05184625528858L150.11200346314632,102.24178008796974L150.20691392670042,130.92781978836106L150.27809677436596,140.4898330218248L150.34927962203153,159.61385948875235L150.4441900855856,150.05184625528858L150.56282816502818,130.92781978836106L150.68146624447078,169.17587272221613L151.29838425757228,102.24178008796974L151.39329472112632,150.05184625528858L151.4882051846804,121.36580655489729L151.51193280056893,130.92781978836106L151.67802611178857,92.67976685450594L151.89157465478525,92.67976685450594L151.98648511833932,130.92781978836106L152.0813955818934,111.80379332143349L152.20003366133597,130.92781978836106L152.29494412489007,130.92781978836106L152.5084926678867,159.61385948875235L152.60340313144079,140.4898330218248L152.62713074732932,140.4898330218248L152.65085836321782,130.92781978836106L152.6983135949949,140.4898330218248L152.7220412108834,102.24178008796974L152.86440690621453,111.80379332143349L152.9830449856571,159.61385948875235L153.03050021743414,159.61385948875235L153.14913829687674,178.7378859556799L153.17286591276525,159.61385948875235L153.19659352865375,159.61385948875235L153.29150399220785,73.5557403875784L153.38641445576192,121.36580655489729L153.5050525352045,111.80379332143349L153.52878015109303,121.36580655489729L153.55250776698156,130.92781978836106L154.0982429324175,140.4898330218248L154.19315339597156,92.67976685450594L154.97616472029267,150.05184625528858L155.09480279973528,111.80379332143349L155.1422580315123,102.24178008796974L155.28462372684342,159.61385948875235L155.47444465395156,150.05184625528858L155.61681034928267,130.92781978836106L155.71172081283675,188.29989918914367L155.87781412405639,159.61385948875235L155.92526935583345,121.36580655489729L156.06763505116456,111.80379332143349L156.11509028294157,121.36580655489729L156.44727690538085,140.4898330218248L156.47100452126938,197.86191242260745L156.70828068015456,92.67976685450594L156.77946352782013,140.4898330218248L156.99301207081677,121.36580655489729L157.08792253437085,102.24178008796974L157.18283299792492,102.24178008796974L157.3963815409216,169.17587272221613L157.4201091568101,130.92781978836106L157.56247485214124,121.36580655489729L157.58620246802974,121.36580655489729L157.70484054747234,121.36580655489729L157.98957193813456,121.36580655489729L158.13193763346567,92.67976685450594L158.2031204811312,121.36580655489729L158.4166690241279,102.24178008796974L158.48785187179345,102.24178008796974L158.6776727989016,83.1177536210422L158.96240418956384,121.36580655489729L159.12849750078348,111.80379332143349L159.43695650733423,121.36580655489729L159.57932220266534,83.1177536210422L159.65050505033088,83.1177536210422L159.6979602821079,140.4898330218248L159.792870745662,92.67976685450594L159.88778120921606,73.5557403875784L159.9352364409931,102.24178008796974L160.0538745204357,102.24178008796974L160.0776021363242,121.36580655489729L160.29115067932088,102.24178008796974L160.433516374652,102.24178008796974L160.5284268382061,63.99372715411465L160.5521544540946,140.4898330218248L160.78943061297977,102.24178008796974L160.90806869242238,140.4898330218248L161.24025531486166,111.80379332143349L161.76226286440905,102.24178008796974L161.78599048029758,92.67976685450594L161.88090094385163,111.80379332143349L161.90462855974016,121.36580655489729L161.9283561756287,102.24178008796974L162.35545326162202,111.80379332143349L162.64018465228426,140.4898330218248L162.66391226817274,92.67976685450594L162.80627796350387,111.80379332143349L162.8537331952809,102.24178008796974L162.97237127472349,102.24178008796974L163.589289287825,130.92781978836106L163.63674451960202,83.1177536210422L163.87402067848723,130.92781978836106L164.13502445326094,111.80379332143349L164.20620730092648,83.1177536210422L164.27739014859205,130.92781978836106L164.7519424663624,130.92781978836106L164.89430816169352,73.5557403875784L165.06040147291316,102.24178008796974L165.20276716824426,83.1177536210422L165.44004332712947,130.92781978836106L165.58240902246058,121.36580655489729L165.65359187012612,91.14984619619918L165.8434127972343,111.80379332143349L165.91459564489983,92.67976685450594L165.9857784925654,102.24178008796974L166.05696134023094,83.1177536210422L166.08068895611947,121.36580655489729L166.5077860421128,111.80379332143349L166.86370028044058,130.92781978836106L167.21961451876837,121.36580655489729L167.2907973664339,83.1177536210422L167.31452498232244,111.80379332143349L167.36198021409948,83.1177536210422L167.385707829988,83.1177536210422L167.9077153795354,130.92781978836106L168.026353458978,130.92781978836106L168.09753630664358,121.36580655489729L168.19244677019765,102.24178008796974L168.23990200197466,130.92781978836106L168.33481246552876,102.24178008796974L168.42972292908283,140.4898330218248L168.52463339263687,111.80379332143349L169.11782378984987,121.36580655489729L169.1415514057384,63.99372715411465L169.40255518051208,73.5557403875784L169.59237610762025,121.36580655489729L169.61610372350876,121.36580655489729L169.68728657117433,63.99372715411465L169.73474180295136,92.67976685450594L169.97201796183654,111.80379332143349L170.13811127305618,63.99372715411465L170.49402551138394,121.36580655489729L170.51775312727247,73.5557403875784L170.58893597493804,150.05184625528858L171.1583987562625,159.61385948875235L171.18212637215098,102.24178008796974L171.56176822636732,130.92781978836106L171.58549584225582,102.24178008796974L171.7990443852525,121.36580655489729L171.9414100805836,92.67976685450594L172.03632054413768,83.1177536210422L172.24986908713436,92.67976685450594L172.415962398354,111.80379332143349L172.43969001424247,111.80379332143349L172.5583280936851,130.92781978836106L172.74814902079322,111.80379332143349L172.96169756378993,159.61385948875235L173.0803356432325,102.24178008796974L173.1989737226751,130.92781978836106L173.27015657034065,111.80379332143349L173.38879464978325,130.92781978836106L173.4599774974488,169.17587272221613L173.55488796100286,111.80379332143349L173.74470888811103,83.1177536210422L173.93452981521918,140.4898330218248L174.10062312643882,111.80379332143349L174.26671643765843,92.67976685450594L174.4802649806551,130.92781978836106L174.57517544420918,102.24178008796974L174.5989030600977,92.67976685450594L174.62263067598622,73.5557403875784L174.67008590776325,102.24178008796974L174.74126875542882,121.36580655489729L174.90736206664846,102.24178008796974L175.1209106096451,92.67976685450594L175.35818676853032,92.67976685450594L175.4530972320844,111.80379332143349L175.50055246386142,121.36580655489729L175.57173531152696,121.36580655489729L175.69037339096957,111.80379332143349L175.76155623863514,140.4898330218248L175.78528385452364,121.36580655489729L175.80901147041214,111.80379332143349L176.25983617229403,111.80379332143349L176.4733847152907,121.36580655489729L176.6157504106218,102.24178008796974L176.78184372184143,73.5557403875784L176.80557133772996,140.4898330218248L177.01911988072663,111.80379332143349L177.18521319194625,121.36580655489729L177.46994458260846,130.92781978836106L177.68349312560514,178.7378859556799L177.7784035891592,188.29989918914367L178.0156797480444,92.67976685450594L178.1105902115985,102.24178008796974L178.22922829104107,92.67976685450594L178.32413875459514,111.80379332143349L178.6325977611459,102.24178008796974L178.70378060881146,130.92781978836106L178.84614630414256,102.24178008796974L178.86987392003107,130.92781978836106L178.8936015359196,130.92781978836106L179.70034047612924,73.5557403875784L179.84270617146035,92.67976685450594L180.00879948268,111.80379332143349L180.1511651780111,92.67976685450594L180.2460756415652,121.36580655489729L180.2935308733422,92.67976685450594L180.34098610511924,92.67976685450594L180.48335180045035,140.4898330218248L180.55453464811592,121.36580655489729L180.60198987989295,92.67976685450594L180.6731727275585,92.67976685450594L181.0290869658863,102.24178008796974L181.07654219766334,102.24178008796974L181.36127358832556,150.05184625528858L181.38500120421406,102.24178008796974L181.4087288201026,130.92781978836106L181.74091544254185,92.67976685450594L181.83582590609592,83.1177536210422L181.93073636965,92.67976685450594L182.12055729675816,121.36580655489729L182.2154677603122,92.67976685450594L182.45274391919742,111.80379332143349L182.52392676686296,83.1177536210422L182.59510961452852,111.80379332143349L182.6662924621941,92.67976685450594L182.78493054163667,130.92781978836106L183.23575524351853,92.67976685450594L183.52048663418077,102.24178008796974L183.54421425006927,92.67976685450594L183.6153970977348,102.24178008796974L183.63912471362335,130.92781978836106L183.6865799454004,83.1177536210422L183.73403517717745,102.24178008796974L183.82894564073152,83.1177536210422L183.9238561042856,92.67976685450594L184.04249418372817,130.92781978836106L184.0899494155052,121.36580655489729L184.445863653833,102.24178008796974L184.5407741173871,102.24178008796974L184.7068674286067,111.80379332143349L185.15769213048856,130.92781978836106L185.22887497815412,121.36580655489729L185.25260259404263,102.24178008796974L185.3475130575967,83.1177536210422L185.39496828937376,159.61385948875235L185.51360636881634,111.80379332143349L185.727154911813,121.36580655489729L185.8220653753671,102.24178008796974L185.91697583892116,130.92781978836106L186.01188630247523,130.92781978836106L186.24916246136044,111.80379332143349L186.29661769313745,102.24178008796974L186.3440729249145,92.67976685450594L186.36780054080302,121.36580655489729L186.4627110043571,102.24178008796974L186.53389385202263,111.80379332143349L186.7237147791308,130.92781978836106L186.81862524268487,92.67976685450594L187.15081186512413,83.1177536210422L187.2457223286782,102.24178008796974L187.29317756045523,102.24178008796974L187.41181563989784,83.1177536210422L187.43554325578637,130.92781978836106L187.4829984875634,92.67976685450594L187.55418133522895,102.24178008796974L187.60163656700598,73.5557403875784L187.64909179878305,121.36580655489729L187.67281941467155,83.1177536210422L187.83891272589116,121.36580655489729L187.91009557355676,111.80379332143349L188.02873365299934,92.67976685450594L188.4795583548812,111.80379332143349L188.71683451376637,111.80379332143349L188.85920020909748,83.1177536210422L189.00156590442862,130.92781978836106L189.09647636798266,73.5557403875784L189.1202039838712,140.4898330218248L189.3812077586449,130.92781978836106L189.4049353745334,83.1177536210422L189.45239060631047,102.24178008796974L189.7608496128612,92.67976685450594L189.9981257717464,102.24178008796974L190.21167431474305,102.24178008796974L190.61504378484787,92.67976685450594L191.0421408708412,111.80379332143349L191.06586848672973,92.67976685450594L191.1133237185068,83.1177536210422L191.3031446456149,111.80379332143349L191.35059987739197,92.67976685450594L191.44551034094602,121.36580655489729L191.68278649983122,63.99372715411465L191.87260742693937,121.36580655489729L191.8963350428279,150.05184625528858L192.15733881760158,83.1177536210422L192.34715974470976,111.80379332143349L192.48952544004086,92.67976685450594L192.5132530559294,178.7378859556799L192.5607082877064,140.4898330218248L192.60816351948344,111.80379332143349L192.72680159892604,102.24178008796974L193.319991996139,140.4898330218248L193.34371961202754,111.80379332143349L193.58099577091272,73.5557403875784L193.62845100268976,150.05184625528858L193.72336146624383,92.67976685450594L193.74708908213236,140.4898330218248L194.07927570457161,83.1177536210422L194.22164139990272,92.67976685450594L194.34027947934533,111.80379332143349L194.38773471112236,73.5557403875784L194.4351899428994,159.61385948875235L194.48264517467643,73.5557403875784L194.79110418122718,92.67976685450594L194.88601464478126,111.80379332143349L194.9334698765583,111.80379332143349L195.00465272422386,111.80379332143349L195.2182012672205,92.67976685450594L195.24192888310904,111.80379332143349L195.47920504199422,102.24178008796974L195.52666027377126,102.24178008796974L195.81139166443347,102.24178008796974L195.835119280322,102.24178008796974L195.85884689621054,102.24178008796974L195.9537573597646,73.5557403875784L196.04866782331865,83.1177536210422L196.1910335186498,130.92781978836106L196.59440298875458,83.1177536210422L196.73676868408572,111.80379332143349L196.76049629997422,92.67976685450594L196.9503172270824,92.67976685450594L197.0926829224135,83.1177536210422L197.2350486177446,102.24178008796974L197.35368669718721,102.24178008796974L197.89942186262314,92.67976685450594L197.94687709440018,111.80379332143349L198.06551517384278,92.67976685450594L198.18415325328536,102.24178008796974L198.4926122598361,92.67976685450594L198.65870557105575,83.1177536210422L199.01461980938353,121.36580655489729L199.29935120004575,111.80379332143349L199.37053404771132,83.1177536210422L199.51289974304242,92.67976685450594L199.70272067015057,121.36580655489729L199.72644828603907,92.67976685450594L199.7501759019276,121.36580655489729L199.77390351781614,121.36580655489729L199.98745206081279,121.36580655489729L200.5331872262487,121.36580655489729L200.55691484213725,102.24178008796974L200.58064245802575,140.4898330218248L200.7467357692454,83.1177536210422L201.0077395440191,102.24178008796974L201.05519477579614,102.24178008796974L201.33992616645835,83.1177536210422L201.3636537823469,130.92781978836106L201.43483663001246,121.36580655489729L201.48229186178946,102.24178008796974L201.506019477678,102.24178008796974L201.55347470945503,130.92781978836106L202.0042994113369,150.05184625528858L202.19412033844503,150.05184625528858L202.47885172910725,102.24178008796974L202.50257934499578,121.36580655489729L202.69240027210392,140.4898330218248L202.71612788799246,102.24178008796974L202.85849358332356,92.67976685450594L202.9296764309891,102.24178008796974L203.07204212632024,102.24178008796974L203.16695258987428,159.61385948875235L203.57032205997913,130.92781978836106L203.61777729175617,121.36580655489729L203.64150490764467,102.24178008796974L203.6652325235332,121.36580655489729L203.92623629830692,102.24178008796974L204.35333338430024,111.80379332143349L204.75670285440506,111.80379332143349L204.9227961656247,130.92781978836106L204.94652378151324,121.36580655489729L205.01770662917878,83.1177536210422L205.39734848339506,130.92781978836106L205.49225894694916,102.24178008796974L205.61089702639174,83.1177536210422L205.6583522581688,102.24178008796974L205.7058074899458,140.4898330218248L205.75326272172285,111.80379332143349L205.8007179534999,102.24178008796974L205.89562841705398,92.67976685450594L205.9193560329425,92.67976685450594L206.1803598077162,83.1177536210422L206.25154265538174,83.1177536210422L206.4413635824899,92.67976685450594L206.51254643015545,83.1177536210422L206.53627404604396,111.80379332143349L206.72609497315213,102.24178008796974L207.08200921147989,111.80379332143349L207.176919675034,121.36580655489729L207.22437490681102,121.36580655489729L207.5802891451388,83.1177536210422L207.88874815168955,83.1177536210422L208.43448331712548,92.67976685450594L208.79039755545327,111.80379332143349L208.81412517134177,102.24178008796974L208.95649086667288,121.36580655489729L208.9802184825614,92.67976685450594L209.09885656200402,130.92781978836106L209.2174946414466,83.1177536210422L209.31240510500066,130.92781978836106L209.3598603367777,92.67976685450594L209.739502190994,121.36580655489729L210.0005059657677,111.80379332143349L210.16659927698734,102.24178008796974L210.19032689287587,102.24178008796974L210.35642020409549,92.67976685450594L210.42760305176105,121.36580655489729L210.9970658330855,102.24178008796974L211.06824868075105,83.1177536210422L211.2343419919707,63.99372715411465L211.30552483963623,130.92781978836106L211.32925245552477,83.1177536210422L211.3767076873018,102.24178008796974L211.4004353031903,83.1177536210422L211.8749876209607,121.36580655489729L211.9936257004033,83.1177536210422L212.20717424339998,92.67976685450594L212.25462947517698,121.36580655489729L212.30208470695405,121.36580655489729L212.46817801817366,102.24178008796974L212.77663702472444,130.92781978836106L212.82409225650144,92.67976685450594L212.96645795183255,102.24178008796974L213.15627887894073,140.4898330218248L213.29864457427183,92.67976685450594L213.32237219016037,121.36580655489729L213.44101026960294,140.4898330218248L213.55964834904555,102.24178008796974L213.72574166026516,121.36580655489729L214.0104730509274,92.67976685450594L214.10538351448147,111.80379332143349L214.41384252103222,73.5557403875784L214.46129775280926,111.80379332143349L214.50875298458627,111.80379332143349L214.57993583225183,150.05184625528858L214.69857391169444,111.80379332143349L215.10194338179926,121.36580655489729L215.22058146124184,92.67976685450594L215.74258901078926,83.1177536210422L215.81377185845483,102.24178008796974L215.9324099378974,102.24178008796974L216.09850324911704,63.99372715411465L216.19341371267112,140.4898330218248L216.24086894444815,83.1177536210422L216.38323463977926,121.36580655489729L216.4069622556678,102.24178008796974L216.5493279509989,130.92781978836106L216.7154212622185,102.24178008796974L216.85778695754962,140.4898330218248L216.9289698052152,111.80379332143349L217.07133550054633,54.43171392065085L217.33233927532,102.24178008796974L217.37979450709707,140.4898330218248L217.61707066598225,130.92781978836106L217.6882535136478,111.80379332143349L217.73570874542483,121.36580655489729L217.85434682486743,111.80379332143349L218.23398867908372,130.92781978836106L218.28144391086076,102.24178008796974L218.42380960619187,73.5557403875784L218.51872006974594,92.67976685450594L218.566175301523,111.80379332143349L218.89836192396226,121.36580655489729L219.1830933146245,92.67976685450594L219.30173139406708,140.4898330218248L219.5864627847293,140.4898330218248L219.61019040061782,73.5557403875784L219.75255609594893,54.43171392065085L219.77628371183744,92.67976685450594L220.10847033427672,102.24178008796974L220.2033807978308,102.24178008796974L220.25083602960783,92.67976685450594L220.29829126138486,111.80379332143349L220.3694741090504,111.80379332143349L220.440656956716,102.24178008796974L220.8440264268208,92.67976685450594L221.1050302015945,169.17587272221613L221.12875781748303,111.80379332143349L221.27112351281414,130.92781978836106L221.43721682403378,111.80379332143349L222.00667960535822,92.67976685450594L222.14904530068932,102.24178008796974L222.19650053246636,73.5557403875784L222.69478046612528,102.24178008796974L222.76596331379082,102.24178008796974L222.8608737773449,73.5557403875784L222.8846013932334,83.1177536210422L222.90832900912193,102.24178008796974L223.05069470445304,92.67976685450594L223.12187755211858,102.24178008796974L223.16933278389564,111.80379332143349L223.38288132689232,92.67976685450594L223.54897463811193,121.36580655489729L223.66761271755453,102.24178008796974L223.85743364466268,83.1177536210422L223.95234410821678,102.24178008796974L224.04725457177082,130.92781978836106L224.35571357832157,102.24178008796974L224.4031688100986,130.92781978836106L224.47435165776417,111.80379332143349L224.7590830484264,102.24178008796974L224.85399351198046,73.5557403875784L224.97263159142307,54.43171392065085L225.0200868232001,73.5557403875784L225.25736298208528,140.4898330218248L225.30481821386232,159.61385948875235L225.35227344563938,102.24178008796974L225.6607324521901,102.24178008796974L226.04037430640642,102.24178008796974L226.159012385849,111.80379332143349L226.32510569706864,111.80379332143349L226.9182960942816,121.36580655489729L226.9420237101701,121.36580655489729L226.96575132605864,130.92781978836106L227.13184463727828,111.80379332143349L227.36912079616346,83.1177536210422L227.55894172327163,92.67976685450594L227.72503503449124,111.80379332143349L227.8199454980453,73.5557403875784L228.08094927281903,92.67976685450594L228.22331496815013,111.80379332143349L228.36568066348124,102.24178008796974L228.7927777494746,92.67976685450594L228.88768821302867,83.1177536210422L229.14869198780235,102.24178008796974L229.26733006724496,121.36580655489729L229.38596814668756,140.4898330218248L229.48087861024163,121.36580655489729L229.50460622613016,111.80379332143349L229.76561000090385,102.24178008796974L229.78933761679238,63.99372715411465L230.0503413915661,150.05184625528858L230.09779662334313,92.67976685450594L230.12152423923163,92.67976685450594L230.28761755045127,121.36580655489729L230.35880039811684,83.1177536210422L230.38252801400535,83.1177536210422L230.40625562989385,102.24178008796974L230.54862132522496,111.80379332143349L231.0706288747724,159.61385948875235L231.4739983448772,102.24178008796974L231.5926364243198,83.1177536210422L231.61636404020834,102.24178008796974L231.66381927198535,102.24178008796974L231.85364019909352,83.1177536210422L233.2298419206276,83.1177536210422L233.56202854306687,150.05184625528858L233.58575615895538,102.24178008796974L233.8467599337291,92.67976685450594L233.87048754961762,83.1177536210422L233.91794278139463,121.36580655489729L233.9653980131717,92.67976685450594L234.03658086083723,92.67976685450594L234.06030847672574,121.36580655489729L234.1077637085028,111.80379332143349L234.65349887393873,102.24178008796974L234.7721369533813,92.67976685450594L234.84331980104687,73.5557403875784L234.9145026487124,121.36580655489729L235.03314072815502,111.80379332143349L235.29414450292873,92.67976685450594L235.5076930459254,92.67976685450594L235.57887589359095,73.5557403875784L235.60260350947948,121.36580655489729L235.81615205247616,102.24178008796974L235.95851774780726,102.24178008796974L236.33815960202355,83.1177536210422L236.48052529735466,92.67976685450594L236.57543576090873,92.67976685450594L236.7889843039054,92.67976685450594L236.83643953568244,111.80379332143349L237.04998807867912,121.36580655489729L237.1448985422332,111.80379332143349L237.2872642375643,102.24178008796974L237.4059023170069,121.36580655489729L237.548268012338,102.24178008796974L237.7618165553347,83.1177536210422L237.9279098665543,73.5557403875784L238.0228203301084,111.80379332143349L238.23636887310505,102.24178008796974L238.59228311143283,159.61385948875235L238.75837642265247,111.80379332143349L238.90074211798358,73.5557403875784L238.99565258153766,102.24178008796974L239.0193801974262,102.24178008796974L239.47020489930802,92.67976685450594L239.49393251519655,83.1177536210422L239.54138774697358,121.36580655489729L239.6837534423047,83.1177536210422L239.75493628997026,63.99372715411465L240.39558191896026,92.67976685450594L240.5379476142914,130.92781978836106L240.63285807784544,121.36580655489729L240.704040925511,92.67976685450594L240.89386185261915,169.17587272221613L240.9413170843962,121.36580655489729L241.344686554501,73.5557403875784L241.36841417038954,130.92781978836106L241.8192388722714,102.24178008796974L241.8429664881599,130.92781978836106L241.91414933582547,102.24178008796974L242.0802426470451,83.1177536210422L242.12769787882212,111.80379332143349L242.3175188059303,140.4898330218248L242.36497403770733,111.80379332143349L242.38870165359586,102.24178008796974L242.69716066014658,102.24178008796974L242.74461589192362,121.36580655489729L242.9818920508088,111.80379332143349L243.05307489847436,102.24178008796974L243.31407867324808,102.24178008796974L243.38526152091362,73.5557403875784L243.43271675269068,102.24178008796974L243.48017198446772,73.5557403875784L243.76490337512993,102.24178008796974L244.16827284523475,121.36580655489729L244.52418708356254,73.5557403875784L244.66655277889367,111.80379332143349L244.83264609011331,111.80379332143349L245.02246701722143,121.36580655489729L245.11737748077547,102.24178008796974L245.28347079199511,111.80379332143349L245.30719840788367,92.67976685450594L245.33092602377215,102.24178008796974L245.56820218265733,121.36580655489729L246.06648211631625,159.61385948875235L246.18512019575883,130.92781978836106L246.30375827520143,111.80379332143349L246.44612397053257,63.99372715411465L246.68340012941775,121.36580655489729L246.80203820886032,83.1177536210422L246.94440390419143,121.36580655489729L247.0393143677455,92.67976685450594L247.06304198363406,73.5557403875784L247.2528629107422,102.24178008796974L247.32404575840775,130.92781978836106L247.34777337429628,111.80379332143349L247.3952286060733,83.1177536210422L247.46641145373889,92.67976685450594L247.4901390696274,83.1177536210422L247.51386668551586,102.24178008796974L247.6799599967355,111.80379332143349L247.7511428444011,92.67976685450594L247.7748704602896,92.67976685450594L247.82232569206664,102.24178008796974L247.8697809238437,121.36580655489729L247.94096377150925,83.1177536210422L247.96469138739775,92.67976685450594L248.1070570827289,73.5557403875784L248.24942277805997,73.5557403875784L248.296878009837,92.67976685450594L248.36806085750254,130.92781978836106L248.84261317527296,140.4898330218248L248.89006840704997,121.36580655489729L249.0324341023811,83.1177536210422L249.19852741360074,140.4898330218248L249.48325880426296,111.80379332143349L249.93408350614482,102.24178008796974L249.98153873792188,102.24178008796974L250.36118059213814,140.4898330218248L250.43236343980368,130.92781978836106L250.47981867158072,111.80379332143349L250.50354628746928,102.24178008796974L250.95437098935113,111.80379332143349L251.5238337706756,102.24178008796974L251.59501661834113,150.05184625528858L251.90347562489185,111.80379332143349L252.09329655200006,92.67976685450594L252.28311747910817,111.80379332143349L252.30684509499667,140.4898330218248L252.37802794266221,102.24178008796974L252.42548317443928,83.1177536210422L252.4492107903278,121.36580655489729L252.7813974127671,111.80379332143349L252.97121833987524,111.80379332143349L253.49322588942263,111.80379332143349L253.6355915847537,83.1177536210422L253.7067744324193,102.24178008796974L253.87286774363895,92.67976685450594L254.18132675018967,83.1177536210422L254.2287819819667,111.80379332143349L254.2525095978552,111.80379332143349L254.41860290907485,83.1177536210422L254.84569999506823,111.80379332143349L255.2253418492845,102.24178008796974L255.39143516050413,102.24178008796974L255.5100732399467,121.36580655489729L255.53380085583527,83.1177536210422L255.67616655116635,83.1177536210422L255.98462555771712,121.36580655489729L256.0320807894941,102.24178008796974L256.17444648482524,83.1177536210422L256.2456293324908,73.5557403875784L256.79136449792674,83.1177536210422L256.91000257736937,111.80379332143349L257.2184615839201,130.92781978836106L257.31337204747416,92.67976685450594L257.74046913346746,111.80379332143349L257.93029006057566,121.36580655489729L258.4760252260116,140.4898330218248L258.5472080736771,102.24178008796974L258.57093568956566,140.4898330218248L258.6183909213427,92.67976685450594L258.6658461531197,102.24178008796974L258.68957376900823,102.24178008796974L258.78448423256236,111.80379332143349L259.0692156232246,92.67976685450594L259.21158131855566,111.80379332143349L259.30649178210973,111.80379332143349L259.85222694754566,102.24178008796974L260.16068595409644,92.67976685450594L260.3505068812046,92.67976685450594L260.54032780831267,111.80379332143349L260.80133158308644,83.1177536210422L260.82505919897494,111.80379332143349L261.18097343730267,73.5557403875784L261.2521562849683,92.67976685450594L261.51316005974195,130.92781978836106L261.5368876756305,102.24178008796974L261.6080705232961,111.80379332143349L262.01143999340087,102.24178008796974L262.10635045695494,54.43171392065085L262.41480946350566,102.24178008796974L262.5334475429483,73.5557403875784L262.5809027747253,102.24178008796974L262.62835800650237,73.5557403875784L262.8419065494991,121.36580655489729L262.96054462894165,92.67976685450594L263.0791827083842,92.67976685450594L263.41136933082345,111.80379332143349L263.435096946712,150.05184625528858L263.4825521784891,102.24178008796974L263.60119025793165,140.4898330218248L264.26556350281015,92.67976685450594L264.4791120458068,130.92781978836106L264.64520535702644,140.4898330218248L264.74011582058057,121.36580655489729L264.88248151591165,121.36580655489729L265.0248472112428,102.24178008796974L265.14348529068536,102.24178008796974L265.21466813835093,102.24178008796974L265.26212337012794,102.24178008796974L265.6180376084557,121.36580655489729L265.8315861514524,130.92781978836106L266.0214070785605,83.1177536210422L266.14004515800315,83.1177536210422L266.2586832374457,102.24178008796974L266.42477654866536,73.5557403875784L266.54341462810794,130.92781978836106L266.590869859885,102.24178008796974L266.638325091662,150.05184625528858L266.6620527075505,121.36580655489729L266.8756012505472,111.80379332143349L266.9230564823243,130.92781978836106L267.06542217765536,111.80379332143349L267.3501535683176,140.4898330218248L267.46879164776016,102.24178008796974L267.65861257486836,102.24178008796974L267.7060678066454,83.1177536210422L267.9433439655306,83.1177536210422L267.99079919730764,73.5557403875784L268.34671343563537,121.36580655489729L268.6077172104091,92.67976685450594L268.65517244218614,121.36580655489729L268.7500829057402,83.1177536210422L268.7975381375173,121.36580655489729L269.03481429640243,83.1177536210422L269.105997144068,121.36580655489729L269.9127360842776,130.92781978836106L270.0788293954972,130.92781978836106L270.1500122431628,111.80379332143349L270.24492270671686,63.99372715411465L270.57710932915614,92.67976685450594L270.83811310392986,111.80379332143349L271.00420641514944,92.67976685450594L271.1702997263691,102.24178008796974L271.4075758852543,121.36580655489729L271.47875873291986,92.67976685450594L271.5973968123625,102.24178008796974L271.71603489180507,111.80379332143349L271.85840058713615,83.1177536210422L271.9058558189132,102.24178008796974L272.14313197779836,121.36580655489729L272.1668595936869,83.1177536210422L272.5702290637917,92.67976685450594L272.6414119114573,83.1177536210422L272.8075052226769,121.36580655489729L273.09223661333914,102.24178008796974L273.37696800400136,169.17587272221613L273.4481508516669,83.1177536210422L273.495606083444,83.1177536210422L273.6616993946636,130.92781978836106L273.8989755535488,102.24178008796974L274.0887964806569,92.67976685450594L274.13625171243393,130.92781978836106L274.183706944211,83.1177536210422L274.25488979187656,73.5557403875784L274.3023450236536,140.4898330218248L274.5158935666503,111.80379332143349L274.7531697255355,121.36580655489729L274.77689734142393,111.80379332143349L275.01417350030914,111.80379332143349L275.1090839638632,92.67976685450594L275.1328115797518,73.5557403875784L275.5836362816336,92.67976685450594L275.70227436107615,92.67976685450594L275.7497295928532,92.67976685450594L275.7734572087418,92.67976685450594L275.84464005640734,92.67976685450594L276.058188599404,111.80379332143349L276.4852856853973,102.24178008796974L276.7225618442825,83.1177536210422L276.95983800316765,73.5557403875784L277.07847608261034,102.24178008796974L277.17338654616435,111.80379332143349L277.1971141620529,102.24178008796974L277.2920246256069,130.92781978836106L277.43439032093806,92.67976685450594L277.45811793682657,83.1177536210422L277.48184555271513,111.80379332143349L277.5530284003807,102.24178008796974L277.6242112480462,111.80379332143349L277.9563978704855,73.5557403875784L278.07503594992806,111.80379332143349L278.14621879759363,150.05184625528858L278.5495882676984,73.5557403875784L278.573315883587,111.80379332143349L278.66822634714106,111.80379332143349L278.78686442658363,83.1177536210422L278.9529577378033,111.80379332143349L279.1665062807999,102.24178008796974L279.213961512577,111.80379332143349L279.45123767146214,111.80379332143349L279.59360336679333,130.92781978836106L279.6410585985703,130.92781978836106L279.7834242939014,130.92781978836106L279.8308795256785,102.24178008796974L279.87833475745555,102.24178008796974L280.04442806867513,111.80379332143349L280.16306614811776,111.80379332143349L280.2105213798948,83.1177536210422L280.2579766116718,140.4898330218248L280.4477975387799,83.1177536210422L280.80371177710776,111.80379332143349L280.8986222406618,83.1177536210422L281.01726032010436,92.67976685450594L281.08844316777,92.67976685450594L281.46808502198627,111.80379332143349L281.7053611808714,102.24178008796974L281.72908879676,111.80379332143349L281.77654402853705,130.92781978836106L281.9189097238681,102.24178008796974L281.9426373397567,92.67976685450594L282.06127541919926,140.4898330218248L282.2273687304189,159.61385948875235L282.3460068098615,111.80379332143349L282.41718965752705,92.67976685450594L282.5121001210811,150.05184625528858L282.6544658164122,73.5557403875784L282.9629248229629,121.36580655489729L283.12901813418256,83.1177536210422L283.5798428360644,130.92781978836106L284.05439515383483,102.24178008796974L284.1255780015004,102.24178008796974L284.2204884650544,111.80379332143349L284.244216080943,83.1177536210422L284.4103093921626,92.67976685450594L284.8136788622674,130.92781978836106L285.0746826370411,83.1177536210422L285.33568641181483,102.24178008796974L285.5017797230345,130.92781978836106L285.64414541836555,121.36580655489729L286.21360819969,111.80379332143349L286.75934336512597,102.24178008796974L286.9728919081226,121.36580655489729L287.3288061464504,121.36580655489729L287.3525337623389,102.24178008796974L287.51862707355855,83.1177536210422L287.6135375371126,102.24178008796974L287.85081369599783,130.92781978836106L287.92199654366334,111.80379332143349L287.9457241595519,130.92781978836106L288.1830003184371,92.67976685450594L288.2779107819911,92.67976685450594L288.4677317090993,92.67976685450594L288.49145932498783,159.61385948875235L288.5863697885419,121.36580655489729L288.7999183315386,130.92781978836106L288.8236459474271,83.1177536210422L289.06092210631226,102.24178008796974L289.0846497222008,121.36580655489729L289.1083773380893,150.05184625528858L289.29819826519747,130.92781978836106L289.39310872875154,83.1177536210422L289.41683634464005,92.67976685450594L289.77275058296783,83.1177536210422L289.962571510076,111.80379332143349L290.2710305166267,111.80379332143349L290.3422133642923,83.1177536210422L290.43712382784634,73.5557403875784L290.4845790596234,102.24178008796974L290.5083066755119,102.24178008796974L290.5794895231775,111.80379332143349L290.65067237084304,92.67976685450594L290.7930380661741,92.67976685450594L290.8167656820627,73.5557403875784L290.93540376150526,103.38922970074623" style="fill: none;" fill="none"></path></g></g></g></g></g></g><g transform="translate(58, 377)" clip-path="url(#clip_1)"><clipPath id="clip_1"><rect width="974" height="23"></rect></clipPath><g><g><line x1="15.718787070575988" y1="0" x2="15.718787070575988" y2="5" style="visibility: inherit;" fill="rgb(0, 0, 0)" stroke="rgb(204, 204, 204)" stroke-width="1px"></line><line x1="134.35686651316985" y1="0" x2="134.35686651316985" y2="5" style="visibility: inherit;" fill="rgb(0, 0, 0)" stroke="rgb(204, 204, 204)" stroke-width="1px"></line><line x1="252.9949459557637" y1="0" x2="252.9949459557637" y2="5" style="visibility: inherit;" fill="rgb(0, 0, 0)" stroke="rgb(204, 204, 204)" stroke-width="1px"></line><line x1="371.63302539835763" y1="0" x2="371.63302539835763" y2="5" style="visibility: inherit;" fill="rgb(0, 0, 0)" stroke="rgb(204, 204, 204)" stroke-width="1px"></line><line x1="490.27110484095147" y1="0" x2="490.27110484095147" y2="5" style="visibility: inherit;" fill="rgb(0, 0, 0)" stroke="rgb(204, 204, 204)" stroke-width="1px"></line><line x1="608.9091842835454" y1="0" x2="608.9091842835454" y2="5" style="visibility: inherit;" fill="rgb(0, 0, 0)" stroke="rgb(204, 204, 204)" stroke-width="1px"></line><line x1="727.5472637261391" y1="0" x2="727.5472637261391" y2="5" style="visibility: inherit;" fill="rgb(0, 0, 0)" stroke="rgb(204, 204, 204)" stroke-width="1px"></line><line x1="846.1853431687331" y1="0" x2="846.1853431687331" y2="5" style="visibility: inherit;" fill="rgb(0, 0, 0)" stroke="rgb(204, 204, 204)" stroke-width="1px"></line><line x1="964.8234226113269" y1="0" x2="964.8234226113269" y2="5" style="visibility: inherit;" fill="rgb(0, 0, 0)" stroke="rgb(204, 204, 204)" stroke-width="1px"></line></g><g transform="translate(0, 8)"><text x="15.718787070575988" y="0" dx="0em" dy="0.95em" style="text-anchor: middle; visibility: hidden; font-family: &quot;Helvetica Neue&quot;, sans-serif; font-size: 12px; font-weight: 200;" fill="rgb(50, 49, 63)" stroke="none" stroke-width="1px">-5.000k</text><text x="134.35686651316985" y="0" dx="0em" dy="0.95em" style="text-anchor: middle; visibility: inherit; font-family: &quot;Helvetica Neue&quot;, sans-serif; font-size: 12px; font-weight: 200;" fill="rgb(50, 49, 63)" stroke="none" stroke-width="1px">0.000</text><text x="252.9949459557637" y="0" dx="0em" dy="0.95em" style="text-anchor: middle; visibility: inherit; font-family: &quot;Helvetica Neue&quot;, sans-serif; font-size: 12px; font-weight: 200;" fill="rgb(50, 49, 63)" stroke="none" stroke-width="1px">5.000k</text><text x="371.63302539835763" y="0" dx="0em" dy="0.95em" style="text-anchor: middle; visibility: inherit; font-family: &quot;Helvetica Neue&quot;, sans-serif; font-size: 12px; font-weight: 200;" fill="rgb(50, 49, 63)" stroke="none" stroke-width="1px">10.00k</text><text x="490.27110484095147" y="0" dx="0em" dy="0.95em" style="text-anchor: middle; visibility: inherit; font-family: &quot;Helvetica Neue&quot;, sans-serif; font-size: 12px; font-weight: 200;" fill="rgb(50, 49, 63)" stroke="none" stroke-width="1px">15.00k</text><text x="608.9091842835454" y="0" dx="0em" dy="0.95em" style="text-anchor: middle; visibility: inherit; font-family: &quot;Helvetica Neue&quot;, sans-serif; font-size: 12px; font-weight: 200;" fill="rgb(50, 49, 63)" stroke="none" stroke-width="1px">20.00k</text><text x="727.5472637261391" y="0" dx="0em" dy="0.95em" style="text-anchor: middle; visibility: inherit; font-family: &quot;Helvetica Neue&quot;, sans-serif; font-size: 12px; font-weight: 200;" fill="rgb(50, 49, 63)" stroke="none" stroke-width="1px">25.00k</text><text x="846.1853431687331" y="0" dx="0em" dy="0.95em" style="text-anchor: middle; visibility: inherit; font-family: &quot;Helvetica Neue&quot;, sans-serif; font-size: 12px; font-weight: 200;" fill="rgb(50, 49, 63)" stroke="none" stroke-width="1px">30.00k</text><text x="964.8234226113269" y="0" dx="0em" dy="0.95em" style="text-anchor: middle; visibility: hidden; font-family: &quot;Helvetica Neue&quot;, sans-serif; font-size: 12px; font-weight: 200;" fill="rgb(50, 49, 63)" stroke="none" stroke-width="1px">35.00k</text></g><line x1="0" y1="0" x2="974.484375" y2="0" fill="rgb(0, 0, 0)" stroke="rgb(204, 204, 204)" stroke-width="1px"></line></g></g></g></g></svg>